<?xml version="1.0" standalone="no"?>
<!DOCTYPE svg PUBLIC "-//W3C//DTD SVG 20010904//EN"
 "http://www.w3.org/TR/2001/REC-SVG-20010904/DTD/svg10.dtd">
<svg version="1.0" xmlns="http://www.w3.org/2000/svg"
 width="544.000000pt" height="603.000000pt" viewBox="0 0 544.000000 603.000000"
 preserveAspectRatio="xMidYMid meet">

<g transform="translate(0.000000,603.000000) scale(0.100000,-0.100000)"
fill="#000000" stroke="none">
<path d="M1177 5026 c-80 -29 -149 -115 -163 -204 -9 -59 18 -140 66 -195 22
-25 50 -49 60 -52 19 -6 20 -16 20 -166 l0 -159 -34 0 c-69 0 -193 -31 -264
-65 -97 -48 -180 -127 -226 -214 -58 -111 -66 -171 -66 -510 l0 -298 -69 -7
c-143 -14 -308 -130 -370 -259 -92 -191 -58 -412 86 -563 83 -87 208 -144 315
-144 l38 0 1 -387 c0 -214 3 -401 5 -418 33 -217 173 -383 375 -447 l74 -23
928 0 928 0 2 152 c2 136 0 152 -16 163 -10 6 -116 83 -235 172 -286 212 -318
236 -378 283 -28 22 -79 60 -114 85 -144 102 -180 155 -180 271 0 132 48 208
166 265 41 19 74 38 74 40 0 3 -208 4 -462 2 -436 -3 -465 -2 -498 16 -66 35
-100 67 -127 119 l-27 52 -1 507 0 506 30 43 c17 24 50 57 74 74 l43 30 1136
3 c1037 2 1141 1 1181 -14 55 -21 106 -66 134 -118 21 -40 22 -49 19 -333 -1
-161 -1 -293 1 -293 2 0 35 14 73 31 38 18 148 65 244 105 l175 73 3 306 c2
244 -1 319 -13 370 -54 233 -246 396 -497 421 l-68 7 0 156 0 157 29 17 c47
27 89 83 106 139 19 65 19 81 -1 149 -20 66 -88 138 -150 157 -244 73 -446
-170 -309 -371 l24 -36 -94 -183 -93 -183 -747 -3 -746 -2 -43 92 c-24 51 -64
135 -90 187 -42 84 -45 95 -32 110 28 31 46 90 46 153 0 147 -102 249 -247
248 -32 -1 -75 -7 -96 -14z"/>
<path d="M4860 3285 c-882 -389 -1490 -647 -2100 -891 -414 -166 -591 -242
-607 -259 -32 -36 -40 -105 -17 -152 22 -45 88 -99 444 -367 140 -106 277
-209 304 -229 l48 -38 42 38 c23 21 199 171 391 333 192 162 453 383 579 490
308 260 331 279 319 255 -13 -24 -522 -784 -656 -980 -107 -156 -207 -301
-422 -609 -162 -233 -170 -254 -118 -308 21 -22 36 -28 68 -28 36 0 60 14 222
130 100 71 186 130 191 130 6 0 32 -17 59 -38 135 -107 428 -324 453 -337 72
-37 167 -6 203 66 19 40 223 645 392 1164 59 182 138 422 175 535 37 113 120
367 185 565 64 198 126 384 136 413 10 29 19 65 19 81 0 51 -68 112 -122 110
-13 -1 -97 -34 -188 -74z"/>
<path d="M1572 3193 c-124 -61 -146 -229 -42 -317 122 -102 310 -16 310 141 0
34 -7 68 -20 93 -43 84 -163 125 -248 83z"/>
<path d="M2307 3189 c-99 -52 -125 -200 -51 -289 33 -39 58 -52 114 -61 87
-13 181 38 209 114 25 66 4 164 -46 209 -54 49 -160 62 -226 27z"/>
<path d="M3084 3199 c-52 -15 -101 -71 -114 -131 -21 -95 20 -181 105 -219
168 -77 335 116 236 273 -47 74 -135 104 -227 77z"/>
</g>
</svg>
