<?xml version="1.0" encoding="UTF-8"?>
<svg id="Layer_1" data-name="Layer 1" xmlns="http://www.w3.org/2000/svg" xmlns:xlink="http://www.w3.org/1999/xlink" viewBox="0 0 364.86 383.73">
  <defs>
    <style>
      .cls-1 {
        fill: url(#radial-gradient);
      }

      .cls-2 {
        fill: url(#radial-gradient-2);
      }

      .cls-3 {
        fill: #231f20;
        font-family: AgencyFB-Bold, 'Agency FB';
        font-size: 28px;
        font-weight: 700;
      }

      .cls-4 {
        fill: #111123;
      }

      .cls-5 {
        fill: #f26b21;
      }
    </style>
    <radialGradient id="radial-gradient" cx="176.5" cy="49.23" fx="176.5" fy="49.23" r="39.62" gradientUnits="userSpaceOnUse">
      <stop offset="0" stop-color="#40bbec"/>
      <stop offset=".05" stop-color="#45bcea"/>
      <stop offset=".51" stop-color="#6fccdd"/>
      <stop offset=".63" stop-color="#6dc8db"/>
      <stop offset=".75" stop-color="#67bcd7"/>
      <stop offset=".86" stop-color="#5da8d1"/>
      <stop offset=".98" stop-color="#4f8cc8"/>
      <stop offset="1" stop-color="#4c86c6"/>
    </radialGradient>
    <radialGradient id="radial-gradient-2" cx="170.05" cy="199.55" fx="170.05" fy="199.55" r="142.97" gradientUnits="userSpaceOnUse">
      <stop offset="0" stop-color="#40bbec"/>
      <stop offset=".26" stop-color="#55c2e5"/>
      <stop offset=".51" stop-color="#6fccdd"/>
      <stop offset=".67" stop-color="#61b0d3"/>
      <stop offset=".88" stop-color="#5191c9"/>
      <stop offset="1" stop-color="#4c86c6"/>
    </radialGradient>
  </defs>
  <path class="cls-1" d="M183.56,84.35c-.05.19.02.46-.11.66l-6.07,13.44-20.17-.28,12.26-36.19-19.63.83c-.33-.48.6-1.05.79-1.32.36-.09.71-.16.88.23q.38.17,0,0c-.33-.15-.55-.37-.66-.67,14.31-20.17,29.18-40.97,44.18-60.61.19-.25,0-.55.58-.41l-14.77,41.7c6.11-.34,12.21-.43,18.3-.63,1.21-.04,2.48-.36,3.78-.17.31.04.39-.12.32.33-6.2,14.14-13.17,28-19.21,42.2-.22.25-.38.55-.46.88Z"/>
  <path class="cls-2" d="M158.73,90.16c-49.89,1.23-102.02,34.89-117,81.62-.2.63-.8,1.05-1.47,1.05-40.21.25-56.21,52.53-20.26,71.75,5.6,2.99,17.08,3.91,19.18,5.96,1.63,1.59,6.65,25.14,9.56,31.15,11.71,24.15,30.24,21.89,54.03,23.58.87.06,1.53.82,1.45,1.67l-.03.34c-.09.89.63,1.67,1.55,1.67h130.81c.94,0,1.66-.8,1.55-1.71h0c-.12-.95.69-1.76,1.67-1.69,36.6,2.44,54.5-16.15,59.54-50.43.1-.67.64-1.19,1.33-1.29,33.38-4.52,53.19-42.44,28.23-67.89-8.79-8.96-26.72-9.83-29.32-12.85-1.92-2.23-3.51-11.48-5.98-15.88-21.57-38.29-62.79-63.77-107.67-66.84M294.26,185.35c23.14,1.29,37.18,30.73,25.14,49.48-.93,1.44-3.17.61-2.87-1.08,1.91-10.72,1.56-22.79-6.96-30.28-7.51-6.59-19.05-3.96-16.91-16.78.13-.78.82-1.38,1.61-1.34ZM231.22,243.95c.85,0,13.15-7.45,14.49-8.77,13.98-13.87,14.71-47.04,1.75-62.08-3.96-4.59-16.76-12.08-22.31-12.08h-113.51c-1.24,0-1.99-1.38-1.31-2.42,21.33-32.71,86.15-52.81,119.97-37.11,54.69,25.38,65.97,112.14,41.44,160.97-8.53,16.98-18.47,17.06-36.4,18.21-31.55,2.04-88.71,3.11-119.41-.09-22.85-2.38-21.53-36.11-23.11-54.93-.08-.91.64-1.7,1.55-1.7h136.84Z"/>
  <path class="cls-5" d="M345.92,205.39c-50.33,29.65-85.1,49.48-120.09,68.49-23.74,12.92-33.86,18.75-34.7,19.88-1.67,2.39-1.66,6.6.05,9.27,1.64,2.55,6,5.34,29.32,18.95,9.18,5.39,18.15,10.62,19.92,11.63l3.16,1.95,2.26-2.58c1.24-1.43,10.77-11.7,21.18-22.81,10.41-11.11,24.56-26.26,31.38-33.59,16.7-17.83,17.95-19.13,17.4-17.61-.61,1.54-25.87,50.88-32.55,63.63-5.34,10.15-10.33,19.58-21.09,39.64-8.1,15.17-8.43,16.49-4.92,19.37,1.42,1.18,2.36,1.43,4.29,1.2,2.17-.25,3.51-1.27,12.44-9.4,5.52-4.98,10.28-9.14,10.58-9.18.36-.04,2.05.8,3.82,1.87,8.88,5.48,28.05,16.47,29.65,17.08,4.6,1.72,10.09-.82,11.75-5.41.86-2.54,8.86-40.4,15.36-72.83,2.26-11.37,5.32-26.38,6.75-33.44s4.63-22.94,7.14-35.32c2.45-12.37,4.87-24,5.26-25.82s.68-4.05.57-5.01c-.36-3.07-4.89-6.26-8.12-5.76-.78.15-5.6,2.73-10.79,5.78Z"/>
  <text class="cls-3" transform="translate(73.9 338.84)"><tspan x="0" y="0">MEDIUM PILOT</tspan></text>
  <rect class="cls-4" x="113.49" y="189.75" width="27.99" height="27.99"/>
  <rect class="cls-4" x="175.89" y="189.75" width="27.99" height="27.99"/>
</svg>